<svg width="116" height="37" viewBox="0 0 116 37" fill="none" xmlns="http://www.w3.org/2000/svg">
<path d="M21.7498 14.4793H14.4986V0H7.25117V14.4793H0V21.7208H7.25117V36.2038H14.4986V21.7208H21.7498V36.2038H29.0009V0H21.7498V14.4793Z" fill="#FF4016"/>
<path d="M50.7507 14.4793H43.4995V0H36.2521V21.7208H43.4995V36.2038H50.7507V21.7208H58.0018V0H50.7507V14.4793Z" fill="#FF4016"/>
<path d="M65.2419 36.2038H72.493V21.7208H86.9954V0H65.2419V36.2038ZM72.493 7.2415H79.7442V14.4793H72.5005L72.493 7.2415Z" fill="#FF4016"/>
<path d="M116 7.2415V0H94.2502V36.2038H116V28.9623H101.501V21.7208H116V14.4793H101.501V7.2415H116Z" fill="#FF4016"/>
</svg>
