<svg width="1000" height="321" viewBox="0 0 1000 321" fill="none" xmlns="http://www.w3.org/2000/svg">
<path d="M341.4 94H339.8V102H336.6V89.2H339.8V90.8H341.4V94H344.6V97.2H341.4V94ZM346.2 94H344.6V90.8H346.2V89.2H349.4V102H346.2V95.6V94ZM359 98.8H362.2V102H352.6V98.8H355.8V92.4H352.6V89.2H362.2V92.4H359V98.8ZM374.997 102H371.797V98.8H370.197V95.6H368.597V102H365.397V89.2H368.597V92.4H370.197V95.6H371.797V89.2H374.997V102ZM384.594 98.8H387.794V102H378.194V98.8H381.394V92.4H378.194V89.2H387.794V92.4H384.594V98.8ZM400.591 102H397.391V98.8H395.791V95.6H394.191V102H390.991V89.2H394.191V92.4H395.791V95.6H397.391V89.2H400.591V102ZM406.988 98.8H410.188V95.6H413.388V102H403.788V89.2H413.388V92.4H406.988V98.8Z" fill="#FF4016"/>
<path d="M599.8 86H609.4V92.4H606.2V89.2H599.8V86ZM603 92.4H606.2V102H603V92.4ZM612.6 86H622.2V102H612.6V86ZM615.8 98.8H619V89.2H615.8V98.8ZM637.077 86H640.277V89.2H638.197V92.4H636.117V95.6H634.037V98.8H631.957V102H628.757V98.8H630.837V95.6H632.917V92.4H634.997V89.2H637.077V86ZM625.397 86H631.797V92.4H625.397V86ZM637.237 95.6H643.637V102H637.237V95.6ZM639.637 99.6H641.237V98H639.637V99.6ZM627.797 90H629.397V88.4H627.797V90Z" fill="#FF4016"/>
<path d="M339.8 145H336.6V132.2H339.8V137H343V132.2H346.2V145H343V140.2H339.8V145ZM352.613 138.6H349.413V132.2H352.613V138.6H355.812V145H352.613V138.6ZM355.812 132.2H359.013V138.6H355.812V132.2ZM365.409 145H362.209V132.2H371.809V140.2H365.409V145ZM365.409 137H368.609V135.4H365.409V137ZM378.206 137H383.006V140.2H378.206V141.8H384.606V145H375.006V132.2H384.606V135.4H378.206V137ZM400.597 141.8H406.997V145H397.397V132.2H406.997V135.4H400.597V141.8ZM413.394 145H410.194V132.2H419.794V138.6H416.594V140.2H419.794V145H416.594V140.2H413.394V145ZM413.394 137H416.594V135.4H413.394V137ZM426.191 137H430.991V140.2H426.191V141.8H432.591V145H422.991V132.2H432.591V135.4H426.191V137ZM438.988 145H435.788V135.4H438.988V138.6H442.188V135.4H438.988V132.2H445.388V145H442.188V141.8H438.988V145ZM454.184 145H450.984V135.4H447.784V132.2H457.384V135.4H454.184V145ZM459.788 132.2H469.388V145H459.788V132.2ZM462.988 141.8H466.188V135.4H462.988V141.8ZM475.784 145H472.584V132.2H482.184V138.6H478.984V140.2H482.184V145H478.984V140.2H475.784V145ZM475.784 137H478.984V135.4H475.784V137ZM488.581 137H494.981V145H485.381V141.8H491.781V140.2H485.381V132.2H494.981V135.4H488.581V137Z" fill="#D3F15C"/>
<path d="M603.8 135.4H610.2V145H600.6V141.8H607V138.6H600.6V129H610.2V132.2H603.8V135.4ZM625.077 129H628.277V132.2H626.197V135.4H624.117V138.6H622.037V141.8H619.957V145H616.757V141.8H618.837V138.6H620.917V135.4H622.997V132.2H625.077V129ZM613.397 129H619.797V135.4H613.397V129ZM625.237 138.6H631.637V145H625.237V138.6ZM627.637 142.6H629.237V141H627.637V142.6ZM615.797 133H617.397V131.4H615.797V133Z" fill="#47F1E7"/>
<path d="M339.8 188H336.6V175.2H339.8V180H343V175.2H346.2V188H343V183.2H339.8V188ZM352.613 181.6H349.413V175.2H352.613V181.6H355.812V188H352.613V181.6ZM355.812 175.2H359.013V181.6H355.812V175.2ZM365.409 188H362.209V175.2H371.809V183.2H365.409V188ZM365.409 180H368.609V178.4H365.409V180ZM378.206 180H383.006V183.2H378.206V184.8H384.606V188H375.006V175.2H384.606V178.4H378.206V180ZM400.597 184.8H403.797V188H397.397V175.2H403.797V178.4H406.997V184.8H403.797V178.4H400.597V184.8ZM413.003 180H417.803V183.2H413.003V184.8H419.403V188H409.803V175.2H419.403V178.4H413.003V180ZM425.8 184.8H422.6V175.2H425.8V184.8H429V188H425.8V184.8ZM429 175.2H432.2V184.8H429V175.2ZM438.597 180H443.397V183.2H438.597V184.8H444.997V188H435.397V175.2H444.997V178.4H438.597V180ZM448.194 175.2H451.394V184.8H456.194V188H448.194V175.2ZM458.6 175.2H468.2V188H458.6V175.2ZM461.8 184.8H465V178.4H461.8V184.8ZM474.597 188H471.397V175.2H480.997V183.2H474.597V188ZM474.597 180H477.797V178.4H474.597V180ZM487.394 180H492.194V183.2H487.394V184.8H493.794V188H484.194V175.2H493.794V178.4H487.394V180ZM500.191 188H496.991V175.2H506.591V181.6H503.391V183.2H506.591V188H503.391V183.2H500.191V188ZM500.191 180H503.391V178.4H500.191V180ZM512.988 180H519.388V188H509.788V184.8H516.188V183.2H509.788V175.2H519.388V178.4H512.988V180Z" fill="#47F1E7"/>
<path d="M603.8 178.4H610.2V188H600.6V184.8H607V181.6H600.6V172H610.2V175.2H603.8V178.4ZM625.077 172H628.277V175.2H626.197V178.4H624.117V181.6H622.037V184.8H619.957V188H616.757V184.8H618.837V181.6H620.917V178.4H622.997V175.2H625.077V172ZM613.397 172H619.797V178.4H613.397V172ZM625.237 181.6H631.637V188H625.237V181.6ZM627.637 185.6H629.237V184H627.637V185.6ZM615.797 176H617.397V174.4H615.797V176Z" fill="#D3F15C"/>
<path d="M339.8 231H336.6V218.2H339.8V223H343V218.2H346.2V231H343V226.2H339.8V231ZM352.613 224.6H349.413V218.2H352.613V224.6H355.812V231H352.613V224.6ZM355.812 218.2H359.013V224.6H355.812V218.2ZM365.409 231H362.209V218.2H371.809V226.2H365.409V231ZM365.409 223H368.609V221.4H365.409V223ZM378.206 223H383.006V226.2H378.206V227.8H384.606V231H375.006V218.2H384.606V221.4H378.206V223ZM400.597 231H397.397V221.4H400.597V224.6H403.797V221.4H400.597V218.2H406.997V231H403.797V227.8H400.597V231ZM413.394 227.8H416.594V224.6H419.794V231H410.194V218.2H419.794V221.4H413.394V227.8ZM426.191 223H430.991V226.2H426.191V227.8H432.591V231H422.991V218.2H432.591V221.4H426.191V223ZM445.388 231H442.188V227.8H440.588V224.6H438.988V231H435.788V218.2H438.988V221.4H440.588V224.6H442.188V218.2H445.388V231ZM454.184 231H450.984V221.4H447.784V218.2H457.384V221.4H454.184V231ZM462.988 223H469.388V231H459.788V227.8H466.188V226.2H459.788V218.2H469.388V221.4H462.988V223Z" fill="#9B8DED"/>
<path d="M603.8 221.4H610.2V231H600.6V227.8H607V224.6H600.6V215H610.2V218.2H603.8V221.4ZM625.077 215H628.277V218.2H626.197V221.4H624.117V224.6H622.037V227.8H619.957V231H616.757V227.8H618.837V224.6H620.917V221.4H622.997V218.2H625.077V215ZM613.397 215H619.797V221.4H613.397V215ZM625.237 224.6H631.637V231H625.237V224.6ZM627.637 228.6H629.237V227H627.637V228.6ZM615.797 219H617.397V217.4H615.797V219Z" fill="#9B8DED"/>
<path d="M336.6 261.2H339.8V270.8H344.6V274H336.6V261.2ZM353.406 270.8H356.606V274H347.006V270.8H350.206V264.4H347.006V261.2H356.606V264.4H353.406V270.8ZM366.203 277.2H363.003V274H359.803V261.2H369.403V274H366.203V277.2ZM363.003 270.8H366.203V264.4H363.003V270.8ZM372.6 261.2H375.8V270.8H379V261.2H382.2V274H372.6V261.2ZM391.797 270.8H394.997V274H385.397V270.8H388.597V264.4H385.397V261.2H394.997V264.4H391.797V270.8ZM401.394 270.8H404.594V274H398.194V261.2H404.594V264.4H407.794V270.8H404.594V264.4H401.394V270.8ZM423.394 274H420.194V261.2H429.794V269.2H423.394V274ZM423.394 266H426.594V264.4H423.394V266ZM432.991 261.2H442.591V274H432.991V261.2ZM436.191 270.8H439.391V264.4H436.191V270.8ZM445.788 261.2H455.388V274H445.788V261.2ZM448.988 270.8H452.188V264.4H448.988V270.8ZM458.584 261.2H461.784V270.8H466.584V274H458.584V261.2ZM481.784 274H478.584V261.2H488.184V269.2H481.784V274ZM481.784 266H484.984V264.4H481.784V266ZM494.581 274H491.381V264.4H494.581V267.6H497.781V264.4H494.581V261.2H500.981V274H497.781V270.8H494.581V274ZM513.778 274H510.578V270.8H508.978V267.6H507.378V274H504.178V261.2H507.378V264.4H508.978V267.6H510.578V261.2H513.778V274ZM520.175 270.8H526.575V274H516.975V261.2H526.575V264.4H520.175V270.8ZM532.972 274H529.772V264.4H532.972V267.6H536.172V264.4H532.972V261.2H539.372V274H536.172V270.8H532.972V274ZM545.769 274H542.569V261.2H545.769V266H548.969V269.2H552.169V274H548.969V269.2H545.769V274ZM548.969 261.2H552.169V266H548.969V261.2ZM558.566 266H563.366V269.2H558.566V270.8H564.966V274H555.366V261.2H564.966V264.4H558.566V266Z" fill="#FACC56"/>
<path d="M339.8 317H336.6V304.2H346.2V312.2H339.8V317ZM339.8 309H343V307.4H339.8V309ZM352.597 317H349.397V304.2H358.997V310.6H355.797V312.2H358.997V317H355.797V312.2H352.597V317ZM352.597 309H355.797V307.4H352.597V309ZM365.394 309H370.194V312.2H365.394V313.8H371.794V317H362.194V304.2H371.794V307.4H365.394V309ZM374.191 309H382.351V312.2H374.191V309ZM387.956 309H394.356V317H384.756V313.8H391.156V312.2H384.756V304.2H394.356V307.4H387.956V309ZM400.753 317H397.553V307.4H400.753V310.6H403.953V307.4H400.753V304.2H407.153V317H403.953V313.8H400.753V317ZM410.35 304.2H413.55V313.8H418.35V317H410.35V304.2ZM423.956 309H428.756V312.2H423.956V313.8H430.356V317H420.756V304.2H430.356V307.4H423.956V309Z" fill="#ED8DC1"/>
<path d="M603.8 264.4H610.2V274H600.6V270.8H607V267.6H600.6V258H610.2V261.2H603.8V264.4ZM625.077 258H628.277V261.2H626.197V264.4H624.117V267.6H622.037V270.8H619.957V274H616.757V270.8H618.837V267.6H620.917V264.4H622.997V261.2H625.077V258ZM613.397 258H619.797V264.4H613.397V258ZM625.237 267.6H631.637V274H625.237V267.6ZM627.637 271.6H629.237V270H627.637V271.6ZM615.797 262H617.397V260.4H615.797V262Z" fill="#FACC56"/>
<path d="M599.8 301H606.2V317H603V304.2H599.8V301ZM609.397 301H618.997V317H609.397V301ZM612.597 313.8H615.797V304.2H612.597V313.8ZM633.874 301H637.074V304.2H634.994V307.4H632.914V310.6H630.834V313.8H628.754V317H625.554V313.8H627.634V310.6H629.714V307.4H631.794V304.2H633.874V301ZM622.194 301H628.594V307.4H622.194V301ZM634.034 310.6H640.434V317H634.034V310.6ZM636.434 314.6H638.034V313H636.434V314.6ZM624.594 305H626.194V303.4H624.594V305Z" fill="#ED8DC1"/>
<rect x="300" width="700" height="49" fill="#FF4016"/>
<rect width="75" height="49" fill="white"/>
<rect width="101" height="49" fill="#ED8DC1"/>
<rect x="151" width="49" height="49" fill="#9B8DED"/>
<rect x="101" width="50" height="49" fill="#FACC56"/>
<rect x="200" width="50" height="49" fill="#47F1E7"/>
<rect x="250" width="50" height="49" fill="#D3F15C"/>
<path fill-rule="evenodd" clip-rule="evenodd" d="M320 141V138H322V141H320ZM322 143V141H325V143H322ZM325 138H327V141H325V138ZM325 138V136H322V138H325Z" fill="#D3F15C"/>
<path fill-rule="evenodd" clip-rule="evenodd" d="M320 270V267H322V270H320ZM322 272V270H325V272H322ZM325 267H327V270H325V267ZM325 267V265H322V267H325Z" fill="#FACC56"/>
<path fill-rule="evenodd" clip-rule="evenodd" d="M320 313V310H322V313H320ZM322 315V313H325V315H322ZM325 310H327V313H325V310ZM325 310V308H322V310H325Z" fill="#ED8DC1"/>
<path fill-rule="evenodd" clip-rule="evenodd" d="M320 227V224H322V227H320ZM322 229V227H325V229H322ZM325 224H327V227H325V224ZM325 224V222H322V224H325Z" fill="#9B8DED"/>
<path fill-rule="evenodd" clip-rule="evenodd" d="M320 184V181H322V184H320ZM322 186V184H325V186H322ZM325 181H327V184H325V181ZM325 181V179H322V181H325Z" fill="#47F1E7"/>
<path fill-rule="evenodd" clip-rule="evenodd" d="M320 98V95H322V98H320ZM322 100V98H325V100H322ZM325 95H327V98H325V95ZM325 95V93H322V95H325Z" fill="#FF4016"/>
<path d="M276 46L276 139.5H320" stroke="#D3F15C"/>
<path d="M226 46L226 182.5H320" stroke="#47F1E7"/>
<path d="M174 48L174 225.5H320" stroke="#9B8DED"/>
<path d="M51 48L51 311.5H320" stroke="#ED8DC1"/>
<path d="M126 5L126 268.5H320" stroke="#FACC56"/>
<path d="M311 49L311 96.5H321" stroke="#FF4016"/>
</svg>
